<?xml version="1.0" standalone="no"?>
<!DOCTYPE svg PUBLIC "-//W3C//DTD SVG 20010904//EN"
 "http://www.w3.org/TR/2001/REC-SVG-20010904/DTD/svg10.dtd">
<svg version="1.0" xmlns="http://www.w3.org/2000/svg"
 width="500.000000pt" height="500.000000pt" viewBox="0 0 500.000000 500.000000"
 preserveAspectRatio="xMidYMid meet">

<g transform="translate(0.000000,500.000000) scale(0.100000,-0.100000)"
fill="#000000" stroke="none">
<path d="M2405 4596 l-230 -133 -5 -277 -5 -278 -234 -135 c-199 -115 -237
-133 -256 -125 -12 6 -120 67 -240 136 l-218 126 -238 -137 -239 -137 0 -273
c0 -150 2 -273 5 -273 3 0 111 61 240 135 l235 136 233 -134 232 -135 3 -279
2 -278 -227 -132 c-125 -72 -228 -135 -230 -140 -2 -9 443 -266 461 -266 6 0
116 60 244 134 l232 133 0 276 0 275 -235 135 c-129 74 -232 136 -229 139 2 3
107 64 232 136 l227 132 5 277 5 278 237 136 238 137 0 273 c0 149 -3 272 -7
272 -5 0 -111 -60 -238 -134z"/>
<path d="M3120 3632 l0 -268 232 -135 c127 -74 234 -135 237 -137 3 -1 5 121
4 270 l-2 273 -228 133 c-125 72 -231 132 -235 132 -5 0 -8 -121 -8 -268z"/>
<path d="M570 2438 c-85 -50 -188 -109 -228 -133 l-73 -42 237 -137 237 -136
218 126 c120 69 225 132 235 138 14 10 -18 32 -213 144 -127 73 -236 132 -244
131 -8 0 -84 -41 -169 -91z"/>
<path d="M3445 2306 l-120 -72 -3 -532 -2 -532 -119 0 -120 0 -3 268 c-3 251
-4 269 -25 307 -28 53 -68 89 -124 114 -43 19 -67 21 -398 21 l-352 1 1 -352
c0 -194 3 -355 5 -358 3 -2 5 154 5 347 l0 352 338 0 c189 0 352 -4 371 -10
48 -13 102 -53 131 -97 25 -36 25 -37 28 -307 2 -174 7 -275 14 -283 15 -19
241 -18 257 1 8 10 11 157 10 532 l-1 519 109 67 c59 37 111 68 115 68 5 0 9
-269 11 -597 l2 -598 3 608 c1 334 -1 607 -5 606 -5 0 -62 -33 -128 -73z"/>
<path d="M3990 1867 c-19 -6 -58 -34 -86 -62 -70 -69 -74 -92 -74 -389 l0
-245 -122 -4 -123 -3 125 0 125 1 5 271 5 271 30 49 c19 30 49 60 79 79 l49
30 358 3 358 3 -70 -121 -71 -120 -218 0 c-120 0 -226 -3 -235 -6 -39 -15 -45
-54 -43 -261 l2 -198 6 206 c4 185 7 209 24 228 18 20 28 21 245 21 l226 0 73
123 c39 68 72 126 72 130 0 12 -701 6 -740 -6z"/>
<path d="M2431 1616 c-9 -10 -11 -70 -9 -209 3 -191 4 -196 27 -221 l24 -26
171 2 171 2 -173 6 c-157 4 -175 7 -188 24 -11 16 -14 63 -14 223 l0 203 168
0 c159 0 170 -1 188 -21 17 -19 20 -43 24 -228 l6 -206 2 198 c2 207 -4 246
-43 261 -9 3 -90 6 -180 6 -128 0 -165 -3 -174 -14z"/>
<path d="M1612 1047 c-40 -68 -72 -127 -72 -130 0 -4 381 -7 848 -7 815 0 849
1 889 20 24 10 54 30 67 44 l25 24 34 -32 c19 -18 52 -37 74 -44 30 -9 204
-12 647 -12 l606 0 0 130 0 130 -317 -2 -318 -3 313 -2 312 -3 0 -120 0 -120
-597 0 c-391 0 -611 4 -636 11 -21 6 -56 26 -77 46 l-40 35 -42 -36 c-23 -20
-59 -41 -79 -46 -23 -6 -341 -9 -867 -8 l-830 3 69 115 69 115 242 5 243 6
-245 2 -246 2 -72 -123z"/>
<path d="M3600 718 c0 -2 -1 -103 -3 -226 l-2 -222 148 0 147 0 0 40 0 40
-105 0 -105 0 0 55 0 55 90 0 90 0 0 38 0 38 -72 -4 c-106 -5 -115 -10 -20
-11 80 -1 83 -2 80 -23 -3 -21 -9 -23 -88 -28 l-85 -5 0 -60 0 -60 103 -3 103
-3 -3 -27 -3 -27 -132 -3 -133 -3 0 211 0 210 136 0 c135 0 135 0 132 -22 -3
-22 -9 -23 -103 -28 l-100 -5 -1 -53 -1 -52 4 50 4 50 105 0 104 0 0 40 0 40
-145 0 c-80 0 -145 -1 -145 -2z"/>
<path d="M3970 495 l0 -225 145 0 145 0 0 40 0 40 -100 0 -100 0 0 185 0 185
-45 0 -45 0 0 -225z m82 28 l3 -178 98 -3 97 -3 0 -29 0 -30 -135 0 -135 0 0
210 0 210 35 0 35 0 2 -177z"/>
<path d="M4330 495 l0 -225 45 0 45 0 0 109 c0 63 -4 112 -10 116 -6 4 -10
-33 -10 -104 l0 -111 -30 0 -30 0 0 210 0 210 35 0 c34 0 36 -2 90 -111 32
-64 61 -109 68 -107 7 2 35 52 64 111 52 106 52 107 88 107 l35 0 0 -210 0
-210 -30 0 -29 0 -3 113 -3 112 -5 -118 -5 -117 43 0 42 0 0 223 0 223 -42 2
-43 2 -54 -115 c-30 -63 -57 -115 -61 -115 -4 0 -31 52 -60 115 l-53 115 -44
0 -43 0 0 -225z"/>
<path d="M4461 440 c36 -74 41 -80 69 -80 27 0 33 7 71 83 48 96 40 96 -11 -1
-50 -93 -69 -93 -115 -3 -19 38 -39 72 -44 75 -5 4 8 -30 30 -74z"/>
</g>
</svg>
